<svg width="57" height="57" viewBox="0 0 57 57" fill="none" xmlns="http://www.w3.org/2000/svg">
<path d="M23.3775 7.7509L14.6235 16.5049L40.242 42.1234L48.996 33.3694L23.3775 7.7509Z" stroke="#C2C2C2" stroke-width="2" stroke-linecap="round" stroke-linejoin="round"/>
<path d="M12.9505 43.8027L18.4505 38.3127C19.4611 37.3002 20.0287 35.9282 20.0287 34.4977C20.0287 33.0671 19.4611 31.6951 18.4505 30.6827L8.87049 21.1027C7.85985 20.0902 7.29224 18.7182 7.29224 17.2877C7.29224 15.8571 7.85985 14.4851 8.87049 13.4727L14.6205 7.72266L15.9905 9.10266" stroke="#C2C2C2" stroke-width="2" stroke-linecap="round" stroke-linejoin="round"/>
<path d="M10.8783 41.7238L1 51.6021L5.278 55.88L15.1563 46.0018L10.8783 41.7238Z" stroke="#C2C2C2" stroke-width="2" stroke-linecap="round" stroke-linejoin="round"/>
<path d="M46.0205 36.3423L48.3505 38.6823L45.5405 41.4923L43.2104 39.1523" stroke="#C2C2C2" stroke-width="2" stroke-linecap="round" stroke-linejoin="round"/>
<path d="M20.4005 10.7326L18.0705 8.39258L15.2605 11.2026L17.5905 13.5326" stroke="#C2C2C2" stroke-width="2" stroke-linecap="round" stroke-linejoin="round"/>
<path d="M47.0205 31.4525L54.2105 24.2725C54.6895 23.8396 54.9774 23.2344 55.0112 22.5897C55.0449 21.9449 54.8217 21.313 54.3905 20.8325C53.9099 20.4012 53.2781 20.178 52.6333 20.2118C51.9885 20.2455 51.3834 20.5334 50.9505 21.0125L49.6505 22.3125C49.119 22.8925 48.381 23.2405 47.5955 23.2817C46.8099 23.3228 46.0396 23.0538 45.4505 22.5325C44.9291 21.9434 44.6601 21.173 44.7012 20.3875C44.7424 19.6019 45.0905 18.8639 45.6705 18.3325L51.0905 12.9125C51.4725 12.5763 51.7839 12.1676 52.0065 11.7101C52.2292 11.2526 52.3587 10.7553 52.3876 10.2473C52.4164 9.7393 52.344 9.23061 52.1745 8.75081C52.0051 8.27102 51.742 7.82969 51.4005 7.45247C50.6448 6.77455 49.6515 6.42344 48.6377 6.47591C47.6239 6.52838 46.6721 6.98017 45.9905 7.73247L43.5405 10.1825C43.1121 10.6522 42.5154 10.9337 41.8805 10.9655C41.2455 10.9973 40.6237 10.777 40.1505 10.3525L39.4805 9.68247C39.0596 9.20682 38.8427 8.58481 38.8763 7.95062C38.91 7.31642 39.1916 6.72089 39.6605 6.29247C39.8952 5.92399 40.0549 5.5128 40.1305 5.08247C40.2035 4.55147 40.1511 4.01073 39.9775 3.50364C39.8038 2.99654 39.5137 2.53721 39.1305 2.16247L38.9205 1.95247C38.6095 1.64374 38.2399 1.40044 37.8334 1.23693C37.4268 1.07342 36.9917 0.993018 36.5536 1.00048C36.1155 1.00793 35.6833 1.1031 35.2826 1.28034C34.8818 1.45759 34.5207 1.71334 34.2205 2.03247L25.9705 10.2925" stroke="#C2C2C2" stroke-width="2" stroke-linecap="round" stroke-linejoin="round"/>
</svg>
