<svg width="58" height="58" viewBox="0 0 58 58" fill="none" xmlns="http://www.w3.org/2000/svg">
<path d="M32.5545 30.75L29.6145 33.69" stroke="#C2C2C2" stroke-width="2" stroke-linecap="round" stroke-linejoin="round"/>
<path d="M26.8946 25.0898L23.9546 28.0298" stroke="#C2C2C2" stroke-width="2" stroke-linecap="round" stroke-linejoin="round"/>
<path d="M29.7244 27.9199L26.7844 30.8599" stroke="#C2C2C2" stroke-width="2" stroke-linecap="round" stroke-linejoin="round"/>
<path d="M28.5545 40.2601L24.4945 38.6101L11.6145 54.3201C9.5345 57.1201 6.6145 57.2301 3.8045 54.4701L3.0145 53.6801C0.264498 50.9201 0.354497 47.9701 3.1345 45.8901L18.7945 32.8901L17.1545 28.9401L21.0145 25.0801L32.3745 36.4501L28.5545 40.2601Z" stroke="#C2C2C2" stroke-width="2" stroke-linecap="round" stroke-linejoin="round"/>
<path d="M21.7544 25.83L24.3344 17.13C24.7602 16.0713 25.3848 15.1039 26.1744 14.28L26.2844 14.17L39.4544 1L56.4544 18L43.3144 31.16L43.2544 31.23C42.4641 31.9871 41.5424 32.5937 40.5344 33.02L31.7444 35.82L21.7544 25.83Z" stroke="#C2C2C2" stroke-width="2" stroke-linecap="round" stroke-linejoin="round"/>
<path d="M7.65439 51.9602C8.84181 51.9602 9.80439 50.9976 9.80439 49.8102C9.80439 48.6227 8.84181 47.6602 7.65439 47.6602C6.46698 47.6602 5.50439 48.6227 5.50439 49.8102C5.50439 50.9976 6.46698 51.9602 7.65439 51.9602Z" stroke="#C2C2C2" stroke-width="2" stroke-linecap="round" stroke-linejoin="round"/>
</svg>
