<svg width="54" height="56" viewBox="0 0 54 56" fill="none" xmlns="http://www.w3.org/2000/svg">
<path d="M25.8025 16.0625L14.8725 26.9925C14.4667 27.389 14.1429 27.8617 13.9197 28.3834C13.6965 28.9051 13.5783 29.4656 13.5718 30.033C13.5653 30.6004 13.6707 31.1635 13.8818 31.6902C14.093 32.2169 14.4059 32.6968 14.8025 33.1025L20.7025 39.0025C21.5241 39.7968 22.6264 40.2341 23.769 40.2192C24.9117 40.2042 26.0021 39.7381 26.8025 38.9225L37.6325 28.0925" stroke="#C2C2C2" stroke-width="2" stroke-linecap="round" stroke-linejoin="round"/>
<path d="M13.9025 32.2026L9.36248 36.7426C8.37783 37.7799 7.844 39.165 7.87773 40.5948C7.91146 42.0246 8.51001 43.3829 9.54248 44.3726C10.5322 45.4051 11.8905 46.0037 13.3203 46.0374C14.7502 46.0711 16.1352 45.5373 17.1725 44.5526L21.7125 40.0126" stroke="#C2C2C2" stroke-width="2" stroke-linecap="round" stroke-linejoin="round"/>
<path d="M49.2125 20.6526C53.9325 15.9226 54.2125 8.5326 49.8025 4.1326C45.3925 -0.267401 38.0125 0.00260043 33.2825 4.7226" stroke="#C2C2C2" stroke-width="2" stroke-linecap="round" stroke-linejoin="round"/>
<path d="M36.2826 7.72273L30.6126 2.05273C24.3026 8.36273 23.9426 18.2027 29.8026 24.1127C35.6626 30.0227 45.5526 29.6327 51.8626 23.3227L46.1926 17.6527" stroke="#C2C2C2" stroke-width="2" stroke-linecap="round" stroke-linejoin="round"/>
<path d="M46.2126 17.6527C44.8927 19.0623 43.0687 19.8924 41.1389 19.9618C39.209 20.0311 37.3302 19.334 35.9126 18.0227C34.6013 16.6051 33.9041 14.7262 33.9735 12.7964C34.0428 10.8665 34.8729 9.0425 36.2826 7.72266" stroke="#C2C2C2" stroke-width="2" stroke-linecap="round" stroke-linejoin="round"/>
<path d="M20.6526 38.9727L28.1326 31.4927" stroke="#C2C2C2" stroke-width="2" stroke-linecap="round" stroke-linejoin="round"/>
<path d="M14.9626 33.2827L22.4426 25.8027" stroke="#C2C2C2" stroke-width="2" stroke-linecap="round" stroke-linejoin="round"/>
<path d="M17.8025 36.1227L22.8825 31.0527" stroke="#C2C2C2" stroke-width="2" stroke-linecap="round" stroke-linejoin="round"/>
<path d="M22.2625 19.6028L17.0325 14.3828" stroke="#C2C2C2" stroke-width="2" stroke-linecap="round" stroke-linejoin="round"/>
<path d="M19.1526 22.7127L13.9226 17.4927" stroke="#C2C2C2" stroke-width="2" stroke-linecap="round" stroke-linejoin="round"/>
<path d="M19.0626 12.3628L11.9526 19.4628" stroke="#C2C2C2" stroke-width="2" stroke-linecap="round" stroke-linejoin="round"/>
<path d="M9.69258 44.5425C9.69258 44.5425 -8.19742 50.8525 7.35258 53.9625C18.9326 56.2825 18.6126 53.9625 17.7026 52.6225C17.3336 52.1166 17.168 51.4907 17.2383 50.8685C17.3087 50.2463 17.61 49.6732 18.0826 49.2625C19.2426 48.1825 21.6526 47.5025 26.6726 49.1025L36.6726 52.3125" stroke="#C2C2C2" stroke-width="2" stroke-linecap="round" stroke-linejoin="round"/>
<path d="M41.7525 13.8527C42.6693 13.8527 43.4125 13.1095 43.4125 12.1927C43.4125 11.2759 42.6693 10.5327 41.7525 10.5327C40.8357 10.5327 40.0925 11.2759 40.0925 12.1927C40.0925 13.1095 40.8357 13.8527 41.7525 13.8527Z" stroke="#C2C2C2" stroke-width="2" stroke-linecap="round" stroke-linejoin="round"/>
</svg>
